<svg width="242" height="139" viewBox="0 0 242 139" fill="none" xmlns="http://www.w3.org/2000/svg">
<g clip-path="url(#clip0_801_5286)">
<ellipse cx="121.806" cy="118.911" rx="112.743" ry="114.567" fill="white" fill-opacity="0.5"/>
<path opacity="0.2" d="M162.588 74.8136L184.112 48.5613C179.633 38.2882 158.909 19.8289 112.611 21.2319C54.7397 22.9855 35.0107 76.4731 29.092 90.5026C24.357 101.726 22.7348 109.355 22.5156 111.766L68.1115 113.301C68.3512 104.8 73.32 84.7715 91.2783 72.6601C113.726 57.5208 140.556 57.7559 162.588 74.8136Z" fill="url(#paint0_linear_801_5286)"/>
<mask id="mask0_801_5286" style="mask-type:alpha" maskUnits="userSpaceOnUse" x="9" y="4" width="225" height="125">
<path d="M221.473 128.75C227.623 129.5 233.276 125.117 233.408 118.922C233.663 106.978 232.009 95.0456 228.486 83.5801C223.862 68.532 216.123 54.6255 205.772 42.7647C195.42 30.9039 182.689 21.3543 168.405 14.7369C154.121 8.11946 138.604 4.58231 122.863 4.3554C107.122 4.1285 91.51 7.21693 77.0412 13.4199C62.5723 19.6229 49.5709 28.8015 38.8822 40.359C28.1935 51.9165 20.0568 65.5942 15.0012 80.5028C11.1492 91.8619 9.15155 103.742 9.06175 115.688C9.01518 121.884 14.5394 126.428 20.7089 125.856V125.856C26.8783 125.284 31.3421 119.806 31.5436 113.614C31.8298 104.814 33.4098 96.0845 36.2502 87.7085C40.2947 75.7816 46.804 64.8395 55.355 55.5935C63.906 46.3475 74.3071 39.0046 85.8822 34.0422C97.4573 29.0798 109.947 26.6091 122.54 26.7906C135.132 26.9721 147.546 29.8018 158.973 35.0958C170.4 40.3897 180.586 48.0294 188.867 57.518C197.147 67.0067 203.339 78.1319 207.038 90.1704C209.635 98.6247 210.963 107.397 210.996 116.2C211.019 122.396 215.323 128 221.473 128.75V128.75Z" fill="#D9D9D9"/>
</mask>
<g mask="url(#mask0_801_5286)">
<g opacity="0.4">
<path d="M290.63 192.545L197.769 159.246" stroke="#298CFF" stroke-width="0.5"/>
<path d="M289.091 188.951L196.23 155.652" stroke="#298CFF" stroke-width="0.5"/>
<path d="M287.548 185.365L194.687 152.066" stroke="#298CFF" stroke-width="0.5"/>
<path d="M286.005 181.78L193.144 148.48" stroke="#298CFF" stroke-width="0.5"/>
<path d="M284.462 178.186L191.601 144.887" stroke="#298CFF" stroke-width="0.5"/>
<path d="M282.919 174.6L190.058 141.301" stroke="#298CFF" stroke-width="0.5"/>
<path d="M281.376 171.006L188.515 137.707" stroke="#298CFF" stroke-width="0.5"/>
<path d="M279.837 167.42L186.976 134.121" stroke="#298CFF" stroke-width="0.5"/>
<path d="M278.294 163.826L185.433 130.527" stroke="#298CFF" stroke-width="0.5"/>
<path d="M276.751 160.24L183.89 126.941" stroke="#298CFF" stroke-width="0.5"/>
<path d="M275.208 156.655L182.347 123.355" stroke="#298CFF" stroke-width="0.5"/>
<path d="M273.665 153.061L180.804 119.762" stroke="#298CFF" stroke-width="0.5"/>
<path d="M272.122 149.475L179.261 116.176" stroke="#298CFF" stroke-width="0.5"/>
<path d="M270.583 145.889L177.722 112.59" stroke="#298CFF" stroke-width="0.5"/>
<path d="M269.04 142.295L176.179 108.996" stroke="#298CFF" stroke-width="0.5"/>
<path d="M267.497 138.709L174.636 105.41" stroke="#298CFF" stroke-width="0.5"/>
<path d="M265.954 135.115L173.093 101.816" stroke="#298CFF" stroke-width="0.5"/>
<path d="M264.411 131.53L171.55 98.2304" stroke="#298CFF" stroke-width="0.5"/>
<path d="M262.872 127.936L170.011 94.6367" stroke="#298CFF" stroke-width="0.5"/>
<path d="M261.329 124.35L168.468 91.0507" stroke="#298CFF" stroke-width="0.5"/>
<path d="M259.786 120.764L166.925 87.4648" stroke="#298CFF" stroke-width="0.5"/>
<path d="M258.243 117.17L165.382 83.871" stroke="#298CFF" stroke-width="0.5"/>
<path d="M256.7 113.584L163.839 80.2851" stroke="#298CFF" stroke-width="0.5"/>
<path d="M255.161 109.998L162.3 76.6992" stroke="#298CFF" stroke-width="0.5"/>
<path d="M253.618 106.405L160.757 73.1054" stroke="#298CFF" stroke-width="0.5"/>
<path d="M252.075 102.819L159.214 69.5195" stroke="#298CFF" stroke-width="0.5"/>
<path d="M250.532 99.2248L157.671 65.9257" stroke="#298CFF" stroke-width="0.5"/>
<path d="M248.989 95.6389L156.128 62.3398" stroke="#298CFF" stroke-width="0.5"/>
<path d="M247.446 92.053L154.585 58.7539" stroke="#298CFF" stroke-width="0.5"/>
<path d="M245.907 88.4592L153.046 55.1601" stroke="#298CFF" stroke-width="0.5"/>
<path d="M244.364 84.8733L151.503 51.5742" stroke="#298CFF" stroke-width="0.5"/>
<path d="M242.821 81.2795L149.96 47.9804" stroke="#298CFF" stroke-width="0.5"/>
<path d="M241.278 77.6936L148.417 44.3945" stroke="#298CFF" stroke-width="0.5"/>
<path d="M239.735 74.0998L146.874 40.8007" stroke="#298CFF" stroke-width="0.5"/>
<path d="M238.196 70.5139L145.335 37.2148" stroke="#298CFF" stroke-width="0.5"/>
<path d="M236.653 66.928L143.792 33.6289" stroke="#298CFF" stroke-width="0.5"/>
<path d="M235.11 63.3342L142.249 30.0351" stroke="#298CFF" stroke-width="0.5"/>
<path d="M233.567 59.7483L140.706 26.4492" stroke="#298CFF" stroke-width="0.5"/>
<path d="M232.024 56.1623L139.163 22.8632" stroke="#298CFF" stroke-width="0.5"/>
<path d="M230.485 52.5686L137.624 19.2695" stroke="#298CFF" stroke-width="0.5"/>
<path d="M228.938 48.9826L136.077 15.6835" stroke="#298CFF" stroke-width="0.5"/>
<path d="M227.399 45.3889L134.538 12.0898" stroke="#298CFF" stroke-width="0.5"/>
<path d="M225.856 41.803L132.995 8.50386" stroke="#298CFF" stroke-width="0.5"/>
<path d="M224.313 38.217L131.452 4.91792" stroke="#298CFF" stroke-width="0.5"/>
<path d="M222.774 34.6233L129.913 1.32417" stroke="#298CFF" stroke-width="0.5"/>
<path d="M221.228 31.0373L128.366 -2.26177" stroke="#298CFF" stroke-width="0.5"/>
<path d="M219.688 27.4436L126.827 -5.85552" stroke="#298CFF" stroke-width="0.5"/>
<path d="M218.145 23.8576L125.284 -9.44146" stroke="#298CFF" stroke-width="0.5"/>
<path d="M216.603 20.2717L123.741 -13.0274" stroke="#298CFF" stroke-width="0.5"/>
<path d="M215.06 16.678L122.198 -16.6211" stroke="#298CFF" stroke-width="0.5"/>
<path d="M213.517 13.092L120.655 -20.2071" stroke="#298CFF" stroke-width="0.5"/>
<path d="M211.978 9.49826L119.116 -23.8008" stroke="#298CFF" stroke-width="0.5"/>
<path d="M210.435 5.91233L117.573 -27.3868" stroke="#298CFF" stroke-width="0.5"/>
<path d="M208.892 2.32639L116.03 -30.9727" stroke="#298CFF" stroke-width="0.5"/>
</g>
</g>
<path d="M21.0185 128.75C14.8681 129.5 9.21508 125.116 9.08303 118.922C8.67789 99.9172 13.1091 81.0541 22.0439 64.1372C32.7314 43.902 49.3514 27.4191 69.6743 16.8996C89.9973 6.38016 113.051 2.32725 135.743 5.28461C158.436 8.24197 179.681 18.0681 196.629 33.4449L181.552 50.0623C167.994 37.7608 150.998 29.8999 132.844 27.534C114.69 25.1681 96.2469 28.4104 79.9885 36.826C63.7301 45.2416 50.4342 58.4279 41.8842 74.616C35.0881 87.4836 31.549 101.759 31.4957 116.2C31.4728 122.396 27.1689 128 21.0185 128.75V128.75Z" fill="#298CFF"/>
<path d="M180.52 51.1825L197.891 32.3828" stroke="#298CFF" stroke-width="2" stroke-linecap="round"/>
</g>
<defs>
<linearGradient id="paint0_linear_801_5286" x1="178.861" y1="48.0466" x2="52.8277" y2="86.5021" gradientUnits="userSpaceOnUse">
<stop stop-color="#298CFF"/>
<stop offset="1" stop-color="#298CFF" stop-opacity="0"/>
</linearGradient>
<clipPath id="clip0_801_5286">
<rect x="0.5" width="241" height="139" rx="20" fill="white"/>
</clipPath>
</defs>
</svg>
