<svg width="132" height="15" viewBox="0 0 132 15" fill="none" xmlns="http://www.w3.org/2000/svg">
<path d="M12.9867 0.925781H0V4.88171H3.88791V14.5533H9.09879V4.88171H12.9867V0.925781Z" fill="white"/>
<path d="M16.5092 0.925781L11.2578 14.5533H16.6172L19.2766 6.60049L21.9496 14.5533H27.3089L22.0576 0.925781H16.5092Z" fill="white"/>
<path d="M39.0023 0.925781H26.0156V4.88171H29.9035V14.5533H35.1144V4.88171H39.0023V0.925781Z" fill="white"/>
<path d="M42.5248 0.925781L37.2734 14.5533H42.6328L45.3058 6.60049L47.9787 14.5533H53.3381L48.0867 0.925781H42.5248Z" fill="white"/>
<path d="M67.4411 2.72586C68.5481 2.72586 69.4661 2.9714 70.1006 3.25786L70.6136 1.26626C70.1141 1.00707 68.9666 0.679688 67.3331 0.679688C63.1887 0.679688 60.0703 3.38063 60.0703 7.89585C60.0703 12.0564 62.6893 14.771 66.9957 14.771C68.6426 14.771 69.9386 14.4436 70.5056 14.1708L70.1006 12.1928C69.4391 12.4793 68.3996 12.6839 67.4141 12.6839C64.4172 12.6839 62.6893 10.7741 62.6893 7.77308C62.6893 4.47192 64.6872 2.72586 67.4276 2.72586" fill="white"/>
<path d="M77.6188 0.871094H76.1068L71.7734 14.5532H74.3249L75.4994 10.6791H79.7923L81.0207 14.5532H83.6802L79.2658 0.871094H77.6188ZM77.6188 8.79659H75.8773L76.9303 5.42723C77.1733 4.60876 77.3758 3.65388 77.5648 2.8627H77.6053V2.88998C77.8078 3.68117 78.0238 4.60876 78.2803 5.42723L79.3468 8.79659H77.6053H77.6188Z" fill="white"/>
<path d="M93.3248 1.89396C92.5688 1.26647 91.5159 0.898161 90.0984 0.802673C89.8554 0.789032 89.5989 0.775391 89.3424 0.775391C87.6954 0.775391 86.467 0.898161 85.5625 1.04821V14.5529H88.0194V9.3693C88.3569 9.45115 88.7619 9.47843 89.2344 9.47843C89.5314 9.47843 89.8284 9.46479 90.1119 9.42387C91.4889 9.28746 92.6768 8.81002 93.5138 7.97791C94.2698 7.24129 94.6613 6.19092 94.6613 4.89501C94.6613 3.59911 94.1348 2.54874 93.3383 1.86668L93.3248 1.89396ZM90.1119 7.43226C89.8419 7.48683 89.5449 7.51411 89.2344 7.51411C88.7214 7.51411 88.3434 7.48683 88.0194 7.39134V2.82156C88.2759 2.75335 88.7619 2.69879 89.4369 2.69879C89.6799 2.69879 89.8959 2.71243 90.0984 2.75335C91.4214 2.94433 92.1908 3.72188 92.1908 5.03142C92.1908 6.34097 91.4214 7.21401 90.0984 7.47319" fill="white"/>
<path d="M99.2595 0.871094H96.7891V14.5532H99.2595V0.871094Z" fill="white"/>
<path d="M111.061 0.871094H100.828V2.95819H104.703V14.5532H107.159V2.95819H111.061V0.871094Z" fill="white"/>
<path d="M116.039 0.871094H114.513L110.18 14.5532H112.731L113.906 10.6791H118.212L119.44 14.5532H122.086L117.672 0.871094H116.039ZM116.039 8.79659H114.297L115.337 5.42723C115.58 4.60876 115.782 3.65388 115.985 2.8627H116.025V2.90362C116.228 3.69481 116.444 4.60876 116.7 5.42723L117.767 8.79659H116.025H116.039Z" fill="white"/>
<path d="M126.439 12.4661V0.871094H123.969V14.5532H132.001V12.4661H126.439Z" fill="white"/>
</svg>
