<svg width="20" height="20" viewBox="0 0 20 20" fill="none" xmlns="http://www.w3.org/2000/svg">
<path opacity="0.2" d="M18.9948 8.92311C19.5108 8.86134 19.8835 8.39152 19.7735 7.88363C19.525 6.73627 19.0759 5.63913 18.4445 4.64365C17.6447 3.38272 16.5726 2.3169 15.3071 1.52444C14.0415 0.731989 12.6145 0.233014 11.1309 0.0641504C9.64725 -0.104714 8.14464 0.0608194 6.73335 0.548598C5.32206 1.03638 4.03792 1.83402 2.9752 2.88296C1.91248 3.93191 1.09816 5.20554 0.592011 6.61035C0.085866 8.01515 -0.0992528 9.51548 0.0502447 11.0012C0.168269 12.1741 0.492484 13.3144 1.00554 14.3703C1.23265 14.8377 1.81587 14.9772 2.25987 14.7072C2.70387 14.4371 2.83937 13.86 2.62252 13.3878C2.24968 12.5759 2.01251 11.706 1.92263 10.8128C1.80127 9.60666 1.95155 8.38867 2.36245 7.24823C2.77335 6.10778 3.43443 5.07383 4.29716 4.22228C5.15989 3.37073 6.20238 2.72319 7.34808 2.3272C8.49379 1.93122 9.71364 1.79684 10.9181 1.93392C12.1225 2.07101 13.2809 2.47608 14.3084 3.11941C15.3358 3.76274 16.2061 4.62799 16.8554 5.65164C17.3362 6.40971 17.6868 7.24041 17.8949 8.10927C18.0159 8.61463 18.4789 8.98489 18.9948 8.92311Z" fill="#133A67"/>
<path d="M10 0.950843C10 0.425707 10.4267 -0.0046892 10.9494 0.0451666C12.592 0.201817 14.1756 0.763142 15.5557 1.68531C17.2002 2.78412 18.4819 4.34591 19.2388 6.17317C19.9957 8.00043 20.1937 10.0111 19.8079 11.9509C19.422 13.8907 18.4696 15.6726 17.0711 17.0711C15.6725 18.4696 13.8907 19.422 11.9509 19.8079C10.0111 20.1937 8.00041 19.9957 6.17315 19.2388C4.34589 18.4819 2.78411 17.2002 1.68529 15.5557C0.763134 14.1756 0.201812 12.592 0.0451647 10.9494C-0.00469004 10.4267 0.425707 9.99998 0.950843 9.99998C1.47598 9.99998 1.89592 10.4272 1.95744 10.9487C2.10675 12.2145 2.5534 13.432 3.26649 14.4992C4.15634 15.8309 5.42113 16.8689 6.9009 17.4819C8.38067 18.0948 10.009 18.2552 11.5799 17.9427C13.1508 17.6302 14.5938 16.8589 15.7264 15.7264C16.8589 14.5938 17.6302 13.1508 17.9427 11.5799C18.2552 10.009 18.0948 8.38069 17.4819 6.90091C16.8689 5.42114 15.8309 4.15635 14.4992 3.2665C13.432 2.55341 12.2145 2.10675 10.9487 1.95744C10.4272 1.89592 10 1.47598 10 0.950843Z" fill="#126FB3"/>
</svg>
