<?xml version="1.0" standalone="no"?>
<!DOCTYPE svg PUBLIC "-//W3C//DTD SVG 1.1//EN" "http://www.w3.org/Graphics/SVG/1.1/DTD/svg11.dtd" >
<svg xmlns="http://www.w3.org/2000/svg">
<metadata>Generated by IcoMoon</metadata>
<defs>
<font id="icomoon" horiz-adv-x="1024">
<font-face units-per-em="1024" ascent="960" descent="-64" />
<missing-glyph horiz-adv-x="1024" />
<glyph unicode="&#x20;" horiz-adv-x="512" d="" />
<glyph unicode="&#xe900;" glyph-name="note" d="M697.344-53.76h-370.688c-142.336 0-223.232 80.896-223.232 223.232v452.608c0 148.48 74.752 223.232 223.232 223.232 20.48 0 37.888-16.384 37.888-37.888 0-17.408 7.168-34.816 19.456-47.104s29.696-19.456 47.104-19.456h162.816c36.864 0 67.584 29.696 67.584 67.584 0 20.48 16.384 37.888 37.888 37.888 148.48 0 223.232-74.752 223.232-223.232v-452.608c-2.048-143.36-82.944-224.256-225.28-224.256zM293.888 769.536c-70.656-6.144-116.736-38.912-116.736-147.456v-452.608c0-101.376 47.104-148.48 148.48-148.48h371.712c101.376 0 148.48 47.104 148.48 148.48v452.608c0 107.52-45.056 140.288-116.736 147.456-16.384-59.392-71.68-103.424-136.192-103.424h-161.792c-37.888 0-73.728 14.336-100.352 41.984-17.408 17.408-29.696 37.888-36.864 61.44zM593.92 666.112h-162.816c-37.888 0-73.728 14.336-100.352 41.984-26.624 26.624-41.984 62.464-41.984 100.352 0 77.824 63.488 141.312 142.336 141.312h162.816c37.888 0 73.728-14.336 100.352-41.984 26.624-26.624 41.984-62.464 41.984-100.352-1.024-77.824-64.512-141.312-142.336-141.312zM431.104 875.008c-36.864 0-67.584-29.696-67.584-67.584 0-17.408 7.168-34.816 19.456-47.104s29.696-19.456 47.104-19.456h163.84c36.864 0 67.584 29.696 67.584 67.584 0 17.408-7.168 34.816-19.456 47.104-14.336 12.288-30.72 19.456-48.128 19.456h-162.816zM378.88 352.768c-9.216 0-19.456 4.096-26.624 11.264l-34.816 34.816c-14.336 14.336-14.336 37.888 0 53.248 14.336 14.336 37.888 14.336 53.248 0l8.192-8.192 77.824 77.824c14.336 14.336 37.888 14.336 53.248 0 14.336-14.336 14.336-37.888 0-53.248l-104.448-104.448c-7.168-8.192-17.408-11.264-26.624-11.264zM698.368 178.688h-371.712c-20.48 0-37.888 16.384-37.888 37.888s16.384 37.888 37.888 37.888h371.712c20.48 0 37.888-16.384 37.888-37.888s-17.408-37.888-37.888-37.888z" />
<glyph unicode="&#xe901;" glyph-name="circle-info" d="M512-53.76c-276.48 0-501.76 225.28-501.76 501.76s225.28 501.76 501.76 501.76c276.48 0 501.76-225.28 501.76-501.76s-225.28-501.76-501.76-501.76zM512 878.080c-237.568 0-430.080-192.512-430.080-430.080s192.512-430.080 430.080-430.080 430.080 192.512 430.080 430.080-192.512 430.080-430.080 430.080zM512 375.296c-19.456 0-35.84 16.384-35.84 35.84v252.928c0 19.456 16.384 35.84 35.84 35.84s35.84-16.384 35.84-35.84v-252.928c0-20.48-16.384-35.84-35.84-35.84zM562.176 259.584c0-27.711-22.465-50.176-50.176-50.176s-50.176 22.465-50.176 50.176c0 27.711 22.465 50.176 50.176 50.176s50.176-22.465 50.176-50.176z" />
<glyph unicode="&#xe902;" glyph-name="rupee" d="M707.584 835.072c32.768-40.96 47.104-87.040 53.248-135.168 1.024-10.24 6.144-11.264 13.312-11.264 36.864 0 73.728 0 110.592 0 11.264 0 15.36-3.072 14.336-14.336-1.024-27.648-1.024-55.296 0-82.944 0-10.24-3.072-14.336-13.312-14.336-37.888 1.024-74.752 0-112.64 0-10.24 0-14.336-2.048-16.384-14.336-17.408-102.4-68.608-180.224-166.912-221.184-41.984-17.408-87.040-23.552-132.096-24.576-31.744-1.024-64.512 0-100.352 0 122.88-124.928 243.712-246.784 365.568-368.64-3.072-5.12-7.168-3.072-11.264-3.072-66.56 0-134.144 0-200.704 0-9.216 0-16.384 3.072-22.528 9.216-117.76 117.76-236.544 235.52-354.304 352.256-7.168 7.168-10.24 15.36-10.24 25.6 1.024 36.864 1.024 72.704 0 109.568 0 12.288 3.072 15.36 15.36 15.36 96.256-1.024 191.488 0 287.744 0 28.672 0 56.32 3.072 82.944 14.336 39.936 16.384 64.512 48.128 78.848 88.064 5.12 13.312 3.072 17.408-12.288 17.408-126.976-1.024-254.976 0-381.952 0-19.456 0-37.888 0-57.344 0-10.24 0-13.312 2.048-13.312 12.288 1.024 27.648 1.024 55.296 0 82.944-1.024 13.312 4.096 15.36 16.384 15.36 143.36 0 286.72 0 430.080 0 26.624 0 26.624 0 17.408 24.576-20.48 56.32-69.632 92.16-136.192 93.184-99.328 2.048-199.68 1.024-299.008 1.024-28.672 0-28.672 0-28.672 27.648 0 31.744 1.024 64.512 0 96.256-1.024 16.384 3.072 19.456 16.384 19.456 173.056-1.024 346.112 0 519.168 0 74.752 0 149.504 0 224.256 0 12.288 0 17.408-2.048 16.384-15.36-1.024-27.648-1.024-55.296 0-82.944 0-11.264-3.072-14.336-14.336-14.336-53.248 1.024-106.496 0-159.744 0-5.12-1.024-10.24-1.024-18.432-2.048z" />
<glyph unicode="&#xe903;" glyph-name="list" d="M799.744 382.464c45.056 0 89.088 0 134.144 0 41.984 0 72.704-27.648 77.824-69.632 1.024-6.144 1.024-12.288 1.024-19.456 0-83.968-1.024-166.912 0-250.88 1.024-48.128-28.672-90.112-89.088-89.088-83.968 2.048-166.912 0-250.88 1.024-58.368 0-88.064 29.696-88.064 88.064 0 83.968 0 168.96 0 252.928 0 55.296 30.72 86.016 87.040 87.040 43.008 0 86.016 0 128 0zM661.504 169.472c0-40.96 0-81.92 0-122.88 0-11.264 2.048-15.36 14.336-15.36 81.92 1.024 163.84 0 245.76 0 11.264 0 15.36 3.072 15.36 15.36 0 81.92 0 163.84 0 245.76 0 10.24-3.072 14.336-13.312 14.336-82.944 0-164.864-1.024-247.808 0-13.312 0-14.336-5.12-14.336-15.36 1.024-41.984 0-81.92 0-121.856zM800.768 942.592c43.008 0 86.016 0 128 0 53.248 0 83.968-30.72 84.992-83.968 1.024-54.272 0-108.544 0-162.816 0-31.744 0-63.488 0-96.256-1.024-52.224-30.72-83.968-82.944-84.992-87.040-1.024-175.104-1.024-262.144 0-52.224 1.024-82.944 32.768-82.944 84.992 0 86.016 0 172.032 0 259.072 0 53.248 31.744 83.968 84.992 83.968 43.008 0 86.016 0 130.048 0zM799.744 591.36c39.936 0 80.896 0 120.832 0 12.288 0 16.384 4.096 16.384 16.384 0 80.896 0 162.816 0 243.712 0 12.288-3.072 15.36-15.36 14.336-81.92-1.024-163.84-1.024-245.76 0-11.264 0-15.36-3.072-15.36-14.336 1.024-80.896 1.024-162.816 0-243.712 0-14.336 5.12-16.384 17.408-16.384 40.96 0 81.92 0 121.856 0zM226.304 382.464c44.032 0 88.064 0 132.096 0 46.080 0 79.872-31.744 79.872-77.824 1.024-91.136 1.024-182.272 0-274.432 0-44.032-31.744-74.752-74.752-75.776-92.16-1.024-185.344-1.024-277.504 0-40.96 1.024-68.608 27.648-73.728 68.608-1.024 7.168-2.048 13.312-2.048 20.48 0 82.944 1.024 165.888 0 248.832-1.024 59.392 40.96 93.184 90.112 90.112 41.984-2.048 83.968 0 125.952 0zM224.256 31.232c40.96 0 81.92 0 122.88 0 11.264 0 15.36 2.048 15.36 14.336-1.024 81.92-1.024 163.84 0 245.76 0 12.288-3.072 14.336-15.36 14.336-81.92 0-163.84 0-245.76 0-12.288 0-15.36-3.072-15.36-15.36 0-80.896 1.024-162.816 0-243.712 0-13.312 4.096-16.384 16.384-16.384 40.96 1.024 81.92 1.024 121.856 1.024zM224.256 942.592c45.056 0 89.088 0 134.144 0 47.104 0 79.872-31.744 80.896-78.848 1.024-90.112 1.024-180.224 0-270.336 0-43.008-28.672-72.704-71.68-77.824-5.12-1.024-10.24-1.024-15.36-1.024-84.992 0-169.984 0-254.976 0-55.296 0-86.016 31.744-86.016 87.040 0 84.992 0 169.984 0 254.976 0 55.296 30.72 86.016 87.040 86.016 41.984 0 83.968 0 125.952 0zM226.304 865.792c-40.96 0-81.92 0-122.88 0-12.288 0-16.384-2.048-16.384-15.36 1.024-80.896 0-162.816 0-243.712 0-11.264 2.048-15.36 14.336-15.36 81.92 0 163.84 0 245.76 0 11.264 0 15.36 3.072 15.36 15.36-1.024 81.92-1.024 163.84 0 245.76 0 13.312-5.12 14.336-15.36 14.336-39.936-2.048-80.896-1.024-120.832-1.024z" />
<glyph unicode="&#xe904;" glyph-name="arrow-right" d="M293.888-53.76c-26.624 0-43.008 8.192-53.248 27.648-9.216 19.456-9.216 37.888 5.12 55.296 5.12 7.168 11.264 13.312 17.408 20.48 126.976 126.976 252.928 253.952 379.904 379.904 16.384 16.384 16.384 16.384 0 33.792-128 128-256 256-384 384-15.36 15.36-26.624 30.72-23.552 53.248 3.072 20.48 13.312 35.84 32.768 44.032 20.48 8.192 39.936 5.12 56.32-11.264 50.176-49.152 99.328-98.304 148.48-147.456 97.28-96.256 193.536-193.536 289.792-289.792 35.84-35.84 35.84-62.464 0-99.328-142.336-142.336-284.672-283.648-425.984-425.984-14.336-13.312-27.648-25.6-43.008-24.576z" />
<glyph unicode="&#xe905;" glyph-name="circle-question" d="M513.024 949.76c-290.816 1.024-502.784-233.472-502.784-501.76 0-276.48 224.256-500.736 501.76-501.76 277.504 3.072 501.76 220.16 501.76 501.76 1.024 269.312-211.968 500.736-500.736 501.76zM509.952 47.616c-217.088 2.048-398.336 178.176-397.312 402.432 1.024 221.184 181.248 400.384 401.408 397.312 222.208-1.024 398.336-180.224 397.312-402.432-2.048-219.136-184.32-399.36-401.408-397.312zM657.408 668.16c-55.296 51.2-121.856 65.536-194.56 51.2-94.208-19.456-155.648-99.328-152.576-194.56 1.024-39.936 36.864-64.512 71.68-49.152 23.552 10.24 31.744 29.696 30.72 54.272-1.024 26.624 6.144 49.152 27.648 66.56 33.792 28.672 88.064 33.792 126.976 11.264 25.6-15.36 45.056-35.84 44.032-67.584s-20.48-52.224-46.080-66.56c-16.384-9.216-33.792-11.264-52.224-12.288-29.696-2.048-49.152-21.504-51.2-51.2 0-6.144 0-12.288 0-18.432 0 0 0 0 0 0 0-7.168-1.024-15.36 0-22.528 2.048-24.576 20.48-44.032 46.080-47.104 21.504-3.072 44.032 10.24 52.224 32.768 3.072 9.216 9.216 12.288 16.384 14.336 28.672 7.168 53.248 22.528 75.776 40.96 79.872 68.608 82.944 186.368 5.12 258.048zM512 259.584c-31.744 0-56.32-24.576-56.32-56.32s24.576-56.32 56.32-56.32c30.72 0 56.32 25.6 56.32 56.32s-24.576 56.32-56.32 56.32z" />
<glyph unicode="&#xe907;" glyph-name="setting" d="M508.928-53.76c-32.768 0-65.536 7.168-91.136 21.504l-262.144 149.504c-107.52 71.68-115.712 83.968-115.712 196.608v269.312c0 111.616 7.168 124.928 112.64 194.56l265.216 150.528c51.2 28.672 131.072 28.672 182.272 0l263.168-148.48c107.52-71.68 115.712-83.968 115.712-195.584v-270.336c0-111.616-7.168-124.928-112.64-194.56l-266.24-151.552c-25.6-14.336-58.368-21.504-91.136-21.504zM508.928 871.936c-19.456 0-38.912-4.096-52.224-11.264l-263.168-149.504c-75.776-50.176-75.776-50.176-75.776-128v-270.336c0-77.824 0-77.824 77.824-130.048l260.096-147.456c27.648-15.36 77.824-15.36 104.448 0l263.168 149.504c75.776 50.176 75.776 50.176 75.776 128v270.336c0 77.824 0 77.824-77.824 129.024l-260.096 148.48c-13.312 7.168-32.768 11.264-52.224 11.264zM508.928 268.8c-100.352 0-182.272 80.896-182.272 179.2s81.92 179.2 182.272 179.2 182.272-79.872 182.272-179.2-81.92-179.2-182.272-179.2zM508.928 549.376c-57.344 0-104.448-45.056-104.448-101.376s47.104-101.376 104.448-101.376 104.448 45.056 104.448 101.376-47.104 101.376-104.448 101.376z" />
<glyph unicode="&#xe908;" glyph-name="arrow-up" d="M987.136 180.736c-8.192-8.192-18.432-15.36-28.672-19.456-11.264-4.096-22.528-7.168-33.792-7.168s-23.552 2.048-33.792 7.168c-11.264 4.096-20.48 11.264-28.672 19.456l-350.208 349.184-349.184-349.184c-16.384-16.384-39.936-26.624-63.488-26.624s-46.080 9.216-63.488 26.624c-16.384 17.408-25.6 39.936-25.6 63.488s9.216 46.080 26.624 63.488l412.672 412.672c8.192 8.192 18.432 15.36 28.672 19.456 11.264 4.096 22.528 7.168 33.792 7.168s23.552-2.048 33.792-7.168c11.264-4.096 20.48-11.264 28.672-19.456l412.672-412.672c34.816-33.792 34.816-91.136 0-126.976z" />
<glyph unicode="&#xe909;" glyph-name="arrow-down" d="M987.136 717.312c-8.192 8.192-18.432 15.36-28.672 19.456-11.264 4.096-22.528 7.168-33.792 7.168s-23.552-2.048-33.792-7.168c-11.264-4.096-20.48-11.264-28.672-19.456l-350.208-348.16-349.184 348.16c-16.384 16.384-39.936 26.624-63.488 26.624s-46.080-9.216-63.488-26.624c-16.384-16.384-25.6-38.912-25.6-63.488s9.216-46.080 26.624-63.488l412.672-412.672c8.192-8.192 18.432-15.36 28.672-19.456 11.264-4.096 22.528-7.168 33.792-7.168s23.552 2.048 33.792 7.168c11.264 4.096 20.48 11.264 28.672 19.456l413.696 413.696c33.792 33.792 33.792 91.136-1.024 125.952z" />
<glyph unicode="&#xe90a;" glyph-name="category" d="M831.488 494.080h-91.136c-115.712 0-182.272 66.56-182.272 182.272v91.136c0 115.712 66.56 182.272 182.272 182.272h91.136c115.712 0 182.272-66.56 182.272-182.272v-91.136c0-115.712-66.56-182.272-182.272-182.272zM740.352 858.624c-65.536 0-91.136-25.6-91.136-91.136v-91.136c0-65.536 25.6-91.136 91.136-91.136h91.136c65.536 0 91.136 25.6 91.136 91.136v91.136c0 65.536-25.6 91.136-91.136 91.136h-91.136zM283.648-53.76h-91.136c-115.712 0-182.272 66.56-182.272 182.272v91.136c0 115.712 66.56 182.272 182.272 182.272h91.136c115.712 0 182.272-66.56 182.272-182.272v-91.136c0-115.712-66.56-182.272-182.272-182.272zM192.512 310.784c-65.536 0-91.136-25.6-91.136-91.136v-91.136c0-65.536 25.6-91.136 91.136-91.136h91.136c65.536 0 91.136 25.6 91.136 91.136v91.136c0 65.536-25.6 91.136-91.136 91.136h-91.136zM238.592 494.080c-125.952 0-228.352 102.4-228.352 227.328s102.4 228.352 228.352 228.352 228.352-102.4 228.352-228.352-103.424-227.328-228.352-227.328zM238.592 858.624c-75.776 0-137.216-61.44-137.216-137.216s61.44-137.216 137.216-137.216 137.216 61.44 137.216 137.216-62.464 137.216-137.216 137.216zM785.408-53.76c-125.952 0-228.352 102.4-228.352 228.352s102.4 228.352 228.352 228.352c125.952-1.024 228.352-103.424 228.352-228.352 0-125.952-102.4-228.352-228.352-228.352zM785.408 310.784c-75.776 0-137.216-61.44-137.216-137.216s61.44-137.216 137.216-137.216c75.776 0 137.216 61.44 137.216 137.216s-61.44 137.216-137.216 137.216z" />
<glyph unicode="&#xe90c;" glyph-name="calendar" d="M827.392-53.76h-630.784c-77.824 0-141.312 63.488-141.312 141.312v631.808c0 77.824 63.488 141.312 141.312 141.312h631.808c77.824 0 141.312-63.488 141.312-141.312v-631.808c-1.024-77.824-64.512-141.312-142.336-141.312zM196.608 758.272c-21.504 0-39.936-17.408-39.936-39.936v-631.808c0-21.504 17.408-39.936 39.936-39.936h631.808c21.504 0 39.936 17.408 39.936 39.936v632.832c0 21.504-17.408 39.936-39.936 39.936h-631.808zM692.224 668.16c-27.648 0-51.2 22.528-51.2 51.2v179.2c0 27.648 22.528 51.2 51.2 51.2s51.2-22.528 51.2-51.2v-180.224c0-27.648-22.528-50.176-51.2-50.176zM331.776 668.16c-27.648 0-51.2 22.528-51.2 51.2v179.2c0 27.648 22.528 51.2 51.2 51.2s51.2-22.528 51.2-51.2v-180.224c-1.024-27.648-23.552-50.176-51.2-50.176zM918.528 487.936h-813.056c-27.648 0-51.2 22.528-51.2 51.2s22.528 51.2 51.2 51.2h812.032c27.648 0 51.2-22.528 51.2-51.2s-22.528-51.2-50.176-51.2z" />
<glyph unicode="&#xe90d;" glyph-name="bell" d="M866.304 125.44h-708.608c-15.36 0-30.72 4.096-45.056 12.288-13.312 8.192-24.576 19.456-32.768 32.768s-12.288 28.672-12.288 45.056c0 15.36 4.096 30.72 12.288 45.056 25.6 44.032 56.32 128 56.32 277.504v35.84c0 50.176 9.216 98.304 28.672 144.384s47.104 87.040 81.92 121.856c34.816 34.816 76.8 62.464 122.88 81.92 46.080 18.432 95.232 26.624 144.384 27.648 205.824-2.048 372.736-172.032 372.736-379.904v-31.744c0-149.504 30.72-233.472 56.32-277.504 8.192-13.312 12.288-28.672 12.288-45.056 0-15.36-4.096-30.72-12.288-45.056-7.168-13.312-18.432-24.576-32.768-32.768-13.312-8.192-28.672-12.288-44.032-12.288zM187.392 232.96h648.192c-28.672 59.392-56.32 155.648-56.32 305.152v31.744c0 149.504-119.808 271.36-266.24 272.384-1.024 0-1.024 0-2.048 0-34.816 0-68.608-7.168-101.376-20.48s-62.464-32.768-88.064-58.368-45.056-54.272-58.368-87.040c-13.312-32.768-20.48-67.584-20.48-103.424 0 0 0 0 0 0v-35.84c1.024-148.48-26.624-244.736-55.296-304.128zM512-53.76c-52.224 0-102.4 20.48-139.264 57.344s-57.344 87.040-57.344 139.264v35.84c0 29.696 24.576 53.248 53.248 53.248s53.248-24.576 53.248-53.248v-35.84c0-23.552 9.216-47.104 26.624-63.488 33.792-33.792 93.184-33.792 126.976 0 16.384 16.384 26.624 39.936 26.624 63.488v35.84c0 29.696 24.576 53.248 53.248 53.248s53.248-24.576 53.248-53.248v-35.84c0-52.224-20.48-102.4-57.344-139.264s-86.016-57.344-139.264-57.344z" />
<glyph unicode="&#xe90e;" glyph-name="filter" d="M603.136-7.68c-7.168 0-14.336 2.048-20.48 5.12l-182.272 91.136c-15.36 8.192-25.6 23.552-25.6 40.96v280.576l-353.28 418.816c-12.288 13.312-14.336 32.768-7.168 49.152s23.552 26.624 40.96 26.624h912.384c17.408 0 33.792-10.24 40.96-26.624s5.12-34.816-6.144-49.152l-353.28-418.816v-372.736c0-15.36-8.192-30.72-21.504-38.912-8.192-4.096-16.384-6.144-24.576-6.144zM465.92 157.184l91.136-46.080v316.416c0 11.264 4.096 21.504 11.264 29.696l301.056 356.352h-714.752l301.056-356.352c7.168-8.192 11.264-18.432 11.264-29.696v-270.336z" />
<glyph unicode="&#xe90f;" glyph-name="select" d="M965.632 702.976h-655.36c-26.624 0-48.128 21.504-48.128 48.128s21.504 48.128 48.128 48.128h656.384c26.624 0 48.128-21.504 48.128-48.128s-22.528-48.128-49.152-48.128zM965.632 400.896h-655.36c-26.624 0-48.128 21.504-48.128 48.128s21.504 48.128 48.128 48.128h656.384c26.624 0 48.128-21.504 48.128-48.128-1.024-26.624-22.528-48.128-49.152-48.128zM965.632 97.792h-655.36c-26.624 0-48.128 21.504-48.128 48.128s21.504 48.128 48.128 48.128h656.384c26.624 0 48.128-21.504 48.128-48.128s-22.528-48.128-49.152-48.128zM58.368 702.976c-26.624 0-48.128 21.504-48.128 48.128s21.504 48.128 47.104 48.128h1.024c26.624 0 48.128-21.504 48.128-48.128s-21.504-48.128-48.128-48.128zM58.368 400.896c-26.624 0-48.128 21.504-48.128 47.104 0 26.624 21.504 48.128 47.104 48.128h1.024c26.624 0 48.128-21.504 48.128-48.128-1.024-25.6-21.504-47.104-48.128-47.104zM58.368 97.792c-26.624 0-48.128 21.504-48.128 48.128s21.504 48.128 47.104 48.128h1.024c26.624 0 48.128-21.504 48.128-48.128s-21.504-48.128-48.128-48.128z" />
<glyph unicode="&#xe910;" glyph-name="arrange" d="M471.040-53.76h-283.648c-53.248 0-77.824 70.656-77.824 140.288v722.944c0 69.632 24.576 140.288 77.824 140.288h283.648c53.248 0 77.824-70.656 77.824-140.288v-722.944c0-69.632-23.552-140.288-77.824-140.288zM195.584 19.968h266.24c5.12 9.216 12.288 31.744 12.288 66.56v722.944c0 34.816-7.168 57.344-12.288 66.56h-266.24c-5.12-9.216-12.288-31.744-12.288-66.56v-722.944c0-34.816 8.192-57.344 12.288-66.56zM836.608-53.76h-283.648c-44.032 0-77.824 45.056-77.824 105.472v482.304c0 60.416 32.768 105.472 77.824 105.472h283.648c44.032 0 77.824-45.056 77.824-105.472v-482.304c0-60.416-33.792-105.472-77.824-105.472zM831.488 567.808l-278.528-2.048c3.072 0-4.096-12.288-4.096-31.744v-482.304c0-19.456 7.168-31.744 9.216-33.792l274.432 1.024c3.072 4.096 8.192 15.36 8.192 31.744v483.328c0 20.48-7.168 31.744-9.216 33.792zM836.608 19.968c0 0 0 0 0 0v0z" />
<glyph unicode="&#xe911;" glyph-name="pin" d="M295.936 648.704c24.576-8.192 43.008 6.144 61.44 26.624 72.704 79.872 147.456 157.696 220.16 236.544 44.032 48.128 79.872 50.176 126.976 6.144 94.208-86.016 186.368-173.056 279.552-260.096 36.864-34.816 36.864-70.656-1.024-111.616-76.8-82.944-153.6-165.888-231.424-247.808-15.36-16.384-21.504-30.72-18.432-54.272 14.336-102.4-23.552-190.464-88.064-267.264-32.768-38.912-84.992-39.936-122.88-6.144-63.488 57.344-125.952 115.712-187.392 174.080-14.336 14.336-22.528 14.336-36.864-1.024-58.368-59.392-117.76-118.784-177.152-177.152-10.24-10.24-20.48-19.456-35.84-18.432s-26.624 10.24-31.744 23.552c-6.144 16.384 1.024 30.72 12.288 41.984 50.176 50.176 101.376 100.352 151.552 151.552 14.336 14.336 40.96 27.648 39.936 45.056-2.048 16.384-26.624 30.72-40.96 44.032-55.296 52.224-110.592 103.424-165.888 155.648-51.2 49.152-47.104 106.496 8.192 150.528 68.608 58.368 145.408 89.088 237.568 88.064z" />
<glyph unicode="&#xe912;" glyph-name="search" d="M461.824 41.472c-248.832 0-451.584 202.752-451.584 451.584s202.752 451.584 451.584 451.584c248.832 0 451.584-202.752 451.584-451.584s-202.752-451.584-451.584-451.584zM461.824 844.288c-193.536 0-351.232-157.696-351.232-351.232s157.696-351.232 351.232-351.232c193.536 0 351.232 157.696 351.232 351.232s-157.696 351.232-351.232 351.232zM963.584-58.88c-13.312 0-25.6 5.12-35.84 14.336l-218.112 219.136c-19.456 19.456-19.456 51.2 0 70.656s51.2 19.456 70.656 0l218.112-218.112c19.456-19.456 19.456-51.2 0-70.656-9.216-10.24-21.504-15.36-34.816-15.36z" />
<glyph unicode="&#xe913;" glyph-name="arrow-up2" d="M65.536-53.76c-14.336 0-28.672 5.12-38.912 16.384-21.504 21.504-21.504 57.344 0 78.848l891.904 891.904c21.504 21.504 57.344 21.504 78.848 0s21.504-57.344 0-78.848l-891.904-891.904c-11.264-11.264-25.6-16.384-39.936-16.384zM958.464 113.152c-30.72 0-55.296 24.576-55.296 55.296v669.696h-669.696c-30.72 0-55.296 24.576-55.296 55.296s24.576 56.32 55.296 56.32h724.992c30.72 0 55.296-24.576 55.296-55.296v-724.992c0-30.72-24.576-56.32-55.296-56.32z" />
<glyph unicode="&#xe914;" glyph-name="book" d="M123.904 223.744c-22.528 0-40.96 18.432-40.96 40.96v442.368c-1.024 184.32 58.368 242.688 241.664 242.688h374.784c183.296 0 242.688-58.368 242.688-242.688v-402.432c0-6.144 0-13.312 0-19.456-1.024-22.528-21.504-39.936-44.032-37.888s-39.936 21.504-37.888 44.032c0 5.12 0 9.216 0 14.336v401.408c0 137.216-22.528 159.744-159.744 159.744h-375.808c-137.216 0-159.744-22.528-159.744-159.744v-442.368c0-22.528-18.432-40.96-40.96-40.96zM465.92 62.976h-201.728c-100.352 0-182.272 80.896-182.272 181.248v25.6c0 86.016 69.632 155.648 155.648 155.648h569.344c22.528 0 40.96-18.432 40.96-40.96s-18.432-40.96-40.96-40.96h-568.32c-39.936 0-73.728-32.768-73.728-73.728v-25.6c0-55.296 45.056-99.328 99.328-99.328h200.704c22.528 0 40.96-18.432 40.96-40.96 1.024-22.528-17.408-40.96-39.936-40.96zM715.776 666.112h-410.624c-22.528 0-40.96 18.432-40.96 40.96s18.432 40.96 40.96 40.96h411.648c22.528 0 40.96-18.432 40.96-40.96s-19.456-40.96-41.984-40.96zM562.176 525.824h-257.024c-22.528 0-40.96 18.432-40.96 40.96s18.432 40.96 40.96 40.96h257.024c22.528 0 40.96-18.432 40.96-40.96s-18.432-40.96-40.96-40.96zM713.728-32.256c-88.064 0-158.72 71.68-158.72 158.72s71.68 158.72 158.72 158.72 158.72-71.68 158.72-158.72-70.656-158.72-158.72-158.72zM713.728 203.264c-41.984 0-76.8-34.816-76.8-76.8s34.816-76.8 76.8-76.8c41.984 0 76.8 34.816 76.8 76.8s-34.816 76.8-76.8 76.8zM854.016-53.76c-10.24 0-21.504 4.096-28.672 12.288l-36.864 36.864c-16.384 16.384-16.384 41.984 0 58.368s41.984 16.384 58.368 0l36.864-36.864c16.384-16.384 16.384-41.984 0-58.368-9.216-8.192-19.456-12.288-29.696-12.288z" />
<glyph unicode="&#xe915;" glyph-name="money-send" d="M512-53.76c-276.48 0-501.76 225.28-501.76 501.76s225.28 501.76 501.76 501.76c21.504 0 38.912-17.408 38.912-38.912s-17.408-39.936-38.912-39.936c-233.472 0-422.912-189.44-422.912-422.912s189.44-422.912 422.912-422.912c233.472 0 422.912 189.44 422.912 422.912 0 21.504 17.408 38.912 38.912 38.912s38.912-17.408 38.912-38.912c1.024-276.48-224.256-501.76-500.736-501.76zM973.824 686.592c-21.504 0-38.912 17.408-38.912 38.912v145.408h-145.408c-21.504 0-38.912 17.408-38.912 38.912s17.408 39.936 38.912 39.936h185.344c21.504 0 38.912-17.408 38.912-38.912v-185.344c0-21.504-17.408-38.912-39.936-38.912zM743.424 639.488c-10.24 0-20.48 4.096-27.648 11.264-15.36 15.36-15.36 39.936 0 55.296l230.4 232.448c15.36 15.36 39.936 15.36 55.296 0s15.36-39.936 0-55.296l-230.4-231.424c-8.192-8.192-17.408-12.288-27.648-12.288zM624.64 615.936h-309.248c-21.504 0-38.912 17.408-38.912 38.912s17.408 38.912 38.912 38.912h309.248c21.504 0 38.912-17.408 38.912-38.912s-17.408-38.912-38.912-38.912zM655.36 479.744h-309.248c-21.504 0-38.912 17.408-38.912 38.912s17.408 38.912 38.912 38.912h309.248c21.504 0 38.912-17.408 38.912-38.912 1.024-21.504-17.408-38.912-38.912-38.912zM556.032 123.392c-11.264 0-23.552 5.12-30.72 15.36l-167.936 211.968c-9.216 11.264-11.264 26.624-5.12 39.936 5.12 13.312 17.408 22.528 31.744 23.552 5.12 1.024 119.808 15.36 125.952 113.664 4.096 67.584-57.344 83.968-69.632 87.040-21.504 5.12-34.816 25.6-29.696 47.104 4.096 21.504 25.6 34.816 46.080 30.72 49.152-10.24 140.288-58.368 132.096-168.96-6.144-96.256-72.704-147.456-132.096-171.008l130.048-164.864c13.312-17.408 10.24-41.984-6.144-55.296-8.192-6.144-16.384-9.216-24.576-9.216z" />
</font>
</defs>
</svg>
